<svg width="100" height="60" viewBox="0 0 76 50">
  <g xmlns="http://www.w3.org/2000/svg" fill="#339AF0">
    <path d="M59.982.27a84.563 84.563 0 0 0-6.48-.27c-8.215 0-13.4 1.488-15.458 4.426C35.987 1.488 30.8 0 22.586 0c-2.208 0-4.427.11-6.48.27V.263c-.095.01-.195.017-.298.017a2.87 2.87 0 0 1-.513.05c-.02 0-.037-.002-.056-.004-.172.03-.352.05-.544.05-.057 0-.112-.006-.167-.009a3.288 3.288 0 0 1-.345.043c-.126.025-.259.04-.396.048v.018c-4.166.413-7.206.947-7.255.956l-.267.048-.736.913H0v48.651l.77-.048c.124-.008 12.62-.791 17.516-1.336l.236-.027c4.943-.549 11.097-1.235 13.734.911l.2.163H43.63l.2-.163c2.675-2.177 9.183-1.431 13.935-.887l.033.002c4.896.561 17.394 1.329 17.52 1.337l.77.047V2.393H70.56l-.738-.913-.267-.048c-.05-.01-3.09-.543-7.256-.956M4.275 6.252l1.804-2.235V41.81l-1.804 3.008V6.252zm31.758 40.075c-.454-.154-5.286-1.733-12.185-1.733a43.196 43.196 0 0 0-6.642.51c-7.057 1.101-10.825 1.322-12.557 1.343l2.243-3.74.007.014c.038-.016 3.87-1.698 16.638-1.73 8.198-.02 11.69 3.33 13.089 5.493l-.593-.157zm1.287-.878c-1.714-2.393-5.537-5.618-13.711-5.618h-.074c-9.943.025-14.585 1.04-16.296 1.55V2.783c1.79-.292 8.622-1.334 15.347-1.334 8.469 0 13.556 1.617 14.734 4.675V45.45zm1.448-39.325c1.177-3.058 6.265-4.675 14.734-4.675 6.725 0 13.558 1.042 15.348 1.334v38.586c-1.76-.499-6.408-1.465-16.226-1.537l-.243-.001c-8.266 0-11.98 3.105-13.613 5.492V6.124zm20.113 38.98a43.2 43.2 0 0 0-6.64-.51c-6.9 0-11.732 1.58-12.186 1.733l-.633.165c1.285-2.161 4.667-5.57 13.193-5.501 11.75.086 15.983 1.485 16.574 1.705l2.251 3.75c-1.74-.022-5.5-.24-12.559-1.343zm12.932-.286-1.805-3.008V4.017l1.805 2.235v38.566z"/>
    <path d="M34.815 9.87c-5.91-4.826-24.353-1.56-24.538-1.526l-.184-1.164c.777-.14 19.104-3.383 25.39 1.752l-.668.938z"/>
    <path d="M34.815 12.464c-5.91-4.826-24.353-1.559-24.538-1.525l-.184-1.165c.777-.14 19.104-3.382 25.39 1.752l-.668.938z"/>
    <path d="M34.815 15.059c-5.91-4.827-24.353-1.56-24.538-1.527l-.184-1.164c.777-.14 19.104-3.383 25.39 1.751l-.668.94z"/>
    <path d="M34.815 17.653c-5.91-4.827-24.353-1.56-24.538-1.527l-.184-1.164c.777-.14 19.104-3.383 25.39 1.752l-.668.939z"/>
    <path d="M34.815 20.246c-5.91-4.826-24.353-1.56-24.538-1.526l-.184-1.165c.777-.14 19.104-3.382 25.39 1.752l-.668.94z"/>
    <path d="M34.815 22.84c-5.91-4.826-24.353-1.559-24.538-1.526l-.184-1.164c.777-.141 19.104-3.383 25.39 1.751l-.668.94z"/>
    <path d="M34.815 25.434c-5.91-4.826-24.353-1.559-24.538-1.526l-.184-1.164c.777-.14 19.104-3.382 25.39 1.752l-.668.938z"/>
    <path d="M34.815 28.029c-5.91-4.827-24.353-1.56-24.538-1.527l-.184-1.164c.777-.14 19.104-3.382 25.39 1.752l-.668.939z"/>
    <path d="M34.815 30.623c-5.91-4.827-24.353-1.56-24.538-1.527l-.184-1.164c.777-.14 19.104-3.382 25.39 1.753l-.668.938z"/>
    <path d="M34.815 33.217c-5.91-4.827-24.353-1.56-24.538-1.526l-.184-1.165c.777-.14 19.104-3.382 25.39 1.752l-.668.94z"/>
    <path d="M34.815 35.81c-5.91-4.825-24.353-1.559-24.538-1.525l-.184-1.164c.777-.141 19.104-3.383 25.39 1.751l-.668.938z"/>
    <path d="M34.815 38.405c-5.91-4.826-24.353-1.559-24.538-1.526l-.184-1.164c.777-.141 19.104-3.383 25.39 1.751l-.668.94zM41.381 9.87c5.91-4.826 24.353-1.56 24.538-1.526l.184-1.164c-.777-.14-19.104-3.383-25.39 1.752l.668.938z"/>
    <path d="M41.38 12.464c5.91-4.826 24.354-1.559 24.539-1.525l.184-1.165c-.777-.14-19.104-3.382-25.39 1.752l.668.938z"/>
    <path d="M41.38 15.059c5.91-4.827 24.354-1.56 24.539-1.527l.184-1.164c-.777-.14-19.104-3.383-25.39 1.751l.668.94z"/>
    <path d="M41.38 17.653c5.91-4.827 24.354-1.56 24.539-1.527l.184-1.164c-.777-.14-19.104-3.383-25.39 1.752l.668.939z"/>
    <path d="M41.38 20.246c5.91-4.826 24.354-1.56 24.539-1.526l.184-1.165c-.777-.14-19.104-3.382-25.39 1.752l.668.94z"/>
    <path d="M41.38 22.84c5.91-4.826 24.354-1.558 24.539-1.525l.184-1.165c-.777-.14-19.104-3.382-25.39 1.752l.668.938z"/>
    <path d="M41.38 25.434c5.91-4.826 24.354-1.559 24.539-1.526l.184-1.164c-.777-.14-19.104-3.382-25.39 1.752l.668.938z"/>
    <path d="M41.38 28.029c5.91-4.827 24.354-1.56 24.539-1.527l.184-1.164c-.777-.14-19.104-3.382-25.39 1.752l.668.939z"/>
    <path d="M41.38 30.623c5.91-4.827 24.354-1.56 24.539-1.527l.184-1.164c-.777-.14-19.104-3.382-25.39 1.753l.668.938z"/>
    <path d="M41.38 33.217c5.91-4.827 24.354-1.56 24.539-1.526l.184-1.165c-.777-.14-19.104-3.382-25.39 1.752l.668.94z"/>
    <path d="M41.38 35.81c5.91-4.825 24.354-1.559 24.539-1.525l.184-1.164c-.777-.141-19.104-3.383-25.39 1.751l.668.938z"/>
    <path d="M41.38 38.405c5.91-4.826 24.354-1.559 24.539-1.526l.184-1.164c-.777-.141-19.104-3.383-25.39 1.751l.668.94z"/>
  </g>
</svg>
